<svg xmlns="http://www.w3.org/2000/svg" viewBox="0 0 512 512">
  <path fill="#000000" d="M384.6,127.4c-42.5,0-81.8,24-106.8,63.1c-16.1,25.2-28.5,43-30.8,46.1c-15.6,22.1-41.2,35.4-68.8,35.4
  c-51.5,0-93.5-42-93.5-93.5s42-93.5,93.5-93.5c28,0,54.1,13.7,69.5,36.4c3.2,4.8,10,6.1,14.8,2.8c4.8-3.2,6.1-10,2.8-14.8
  c-19.4-28.5-52-45.7-87.1-45.7c-63.3,0-114.8,51.5-114.8,114.8s51.5,114.8,114.8,114.8c34.7,0,67.3-17.2,86.6-45.4
  c16-24.9,28.4-42.7,30.7-45.7c15.6-22.1,41.2-35.4,68.8-35.4c51.5,0,93.5,42,93.5,93.5s-42,93.5-93.5,93.5
  c-28.7,0-55.2-14.1-70.7-37.3c-3-4.5-9.2-5.7-13.7-2.7c-4.5,3-5.7,9.2-2.7,13.7c19.3,28.9,52.4,46.4,87.2,46.4
  c63.3,0,114.8-51.5,114.8-114.8S447.9,127.4,384.6,127.4z"/>
</svg>